<svg xmlns="http://www.w3.org/2000/svg" viewBox="0 0 128 128" style="enable-background:new 0 0 128 128" xml:space="preserve"><path style="fill:#171617" d="M105.924 76.451c-3.678 0-7.137.926-10.176 2.556l-3.877-4.209a23.338 23.338 0 0 0 4.471-10.071 15.642 15.642 0 0 0 6.432 1.366c8.855 0 16.057-7.206 16.057-16.043 0-8.859-7.203-16.066-16.057-16.066a15.995 15.995 0 0 0-14.229 8.661c-4.141-3.592-9.493-5.752-15.375-5.752-3.15 0-6.145.617-8.877 1.741l-.837-1.146a17.924 17.924 0 0 0 3.943-11.239c0-9.917-8.062-17.983-17.996-17.983-9.912 0-17.974 8.066-17.974 17.983 0 9.939 8.062 18.005 17.974 18.005 2.489 0 4.868-.507 7.049-1.433l.462.617-.72.198c-4.339 4.253-7.592 10.248-7.592 16.837v.419l-4.302.727c-4.317-6.7-11.59-11.129-20.136-11.129C10.773 50.491 0 61.399 0 74.798s10.968 24.308 24.36 24.308 24.328-10.909 24.328-24.308c0-1.631-.127-3.239-.435-4.782l3.163-.485c3.546 8.529 11.967 14.523 21.747 14.523 4.449 0 8.616-1.234 12.162-3.394l3.658 4.011a21.463 21.463 0 0 0-4.691 13.421c0 11.944 9.714 21.641 21.63 21.641 11.938 0 21.63-9.697 21.63-21.641.002-11.922-9.69-21.641-21.628-21.641zm-3.15-33.651a7.255 7.255 0 0 1 7.247 7.251c0 3.989-3.26 7.228-7.247 7.228s-7.247-3.239-7.247-7.228a7.254 7.254 0 0 1 7.247-7.251zM24.426 90.291c-8.546 0-15.485-6.942-15.485-15.493s6.938-15.493 15.485-15.493S39.91 66.248 39.91 74.798s-6.938 15.493-15.484 15.493zm24.978-54.852c-5.066 0-9.163-4.121-9.163-9.19 0-5.047 4.097-9.168 9.163-9.168s9.185 4.121 9.185 9.168c0 5.069-4.119 9.19-9.185 9.19zm23.766 39.8c-8.128 0-14.736-6.611-14.736-14.765 0-8.132 6.608-14.765 14.736-14.765 8.15 0 14.758 6.633 14.758 14.765 0 8.154-6.608 14.765-14.758 14.765zm32.754 35.679c-7.07 0-12.819-5.752-12.819-12.826s5.749-12.826 12.819-12.826c7.071 0 12.819 5.752 12.819 12.826s-5.749 12.826-12.819 12.826z"/></svg>