<svg version="1.0" xmlns="http://www.w3.org/2000/svg" width="100" height="100" xml:space="preserve"><path d="M66.667 36.667v20h20zM33.333 43.333C33.333 35.977 39.316 30 46.667 30H60v-6.667H33.333A6.664 6.664 0 0 0 26.667 30v40a6.668 6.668 0 0 0 6.666 6.667V43.333z"/><path d="M20 30c0-7.356 5.983-13.333 13.333-13.333h13.334V10H20a6.665 6.665 0 0 0-6.667 6.667v40A6.669 6.669 0 0 0 20 63.333V30zM66.667 63.333A6.669 6.669 0 0 1 60 56.667v-20H46.667A6.664 6.664 0 0 0 40 43.333v40A6.669 6.669 0 0 0 46.667 90H80a6.666 6.666 0 0 0 6.667-6.667v-20h-20zm10 16.667H50v-6.667h26.667V80z"/></svg>