<svg version="1.0" xmlns="http://www.w3.org/2000/svg" width="100" height="100" xml:space="preserve"><path d="M50 33.333c-7.2 0-12.122 5.808-10.938 12.91l1.797 10.752c.71 4.265 4.817 7.748 9.141 7.748 4.319 0 8.435-3.483 9.144-7.748l1.791-10.752c1.184-7.102-3.738-12.91-10.935-12.91zM72.451 69.704 59.922 65.53c-2.63 2.568-6.165 4.213-9.922 4.213s-7.292-1.645-9.922-4.213l-12.526 4.174c-2.317.774-4.219 3.408-4.219 5.853v11.11h53.334v-11.11c0-2.445-1.898-5.078-4.216-5.853z"/><path d="M63.333 26.667c-2.984 0-5.54 1.038-7.467 2.715 2.552.931 4.82 2.457 6.559 4.512 2.995 3.535 4.248 8.333 3.441 13.17l-1.791 10.752c-.01.065-.039.127-.052.192 4.06-.349 7.783-3.646 8.454-7.679l1.79-10.752c1.185-7.103-3.737-12.91-10.934-12.91zM37.571 33.894c2.416-2.852 5.834-4.697 9.643-5.313l.387-2.338c1.186-7.103-3.736-12.91-10.934-12.91-7.201 0-12.123 5.808-10.938 12.91l1.797 10.752c.553 3.337 3.196 6.169 6.39 7.256-.013-3.848 1.247-7.513 3.655-10.357zM25.964 64.961l11.094-3.691c-.512-1.097-.932-2.239-1.133-3.454l-1.384-8.301c-2.946-.491-5.671-1.91-7.796-3.984l-12.526 4.174C11.901 50.479 10 53.112 10 55.557v11.11h12.845a10.49 10.49 0 0 1 3.119-1.706zM85.784 63.037l-12.529-4.173a14.868 14.868 0 0 1-6.455 3.688l7.23 2.409c4.355 1.455 7.637 6.009 7.637 10.596V80H90V68.89c0-2.445-1.897-5.078-4.216-5.853z"/></svg>